{
.appVersion = "3227";
.formatVersion = 3;
DisplayStrings = (
"en aned hoses ons so es on san ased oan anded isonan a den ons on asease on an eass se non sand an ond sis ons ishe ead inhose ande in on ed don annood disad ind sed onan hoodeed nonin aseed he andese in aseno a dess dina hadeen headin ended no hadand ones ones in don is ons a shases eno hes and en anden dessas inin and and onedis heend and ond ands aniand he innand hein ones ons anessid din asedes and ise and he andis no heno aseand heand andis onsis hedies on an dans nood onesein iss inesed


en aned hoses ons so es on san ased oan anded isonan a den ons on asease on an eass se non sand an ond sis ons ishe ead inhose ande in on ed don annood disad ind sed onan hoodeed nonin aseed he andese in aseno a dess dina hadeen headin ended no hadand ones ones in don is ons a shases eno hes and en anden dessas inin and and onedis heend and ond ands aniand he innand hein ones ons anessid din asedes and ise and he andis no heno aseand heand andis onsis hedies on an dans nood onesein iss inesed


En Aned Hoses Ons So Es On San Ased Oan Anded Isonan A Den Ons On Asease On An Eass Se Non Sand An Ond Sis Ons Ishe Ead Inhose Ande In On Ed Don Annood Disad Ind Sed Onan Hoodeed Nonin Aseed He Andese In Aseno A Dess Dina Hadeen Headin Ended No Hadand Ones Ones In Don Is Ons A Shases Eno Hes And En Anden Dessas Inin And And Onedis Heend And Ond Ands Aniand He Innand Hein Ones Ons Anessid Din Asedes And Ise And He Andis No Heno Aseand Heand Andis Onsis Hedies On An Dans Nood Onesein Iss Inesed",
"gQk Gqk
GQK
HH HO OO
HHAHOAOO
HHDHODOO
HHEHOEOO
HHIHOIOO
HHNHONOO
HHSHOSOO

hh ho oo
hhahoaoo
hhdhodoo
hhehoeoo
hhihoioo
hhnhonoo
hhshosoo

HHaHOaOO
HHdHOdOO
HHeHOeOO
HHiHOiOO
HHnHOnOO
HHsHOsOO


hhAhoAoo
hhDhoDoo
hhEhoEoo
hhIhoIoo
hhNhoNoo
hhShoSoo


"
);
date = "2023-10-16 11:25:55 +0000";
familyName = WheatpasteV030;
fontMaster = (
{
iconName = Bold;
id = m01;
metricValues = (
{
over = 16;
pos = 800;
},
{
over = 16;
pos = 700;

glyphs = (
{
glyphname = A;
lastChange = "2023-11-29 18:53:10 +0000";
layers = (
{
layerId = m01;
shapes = (
{
closed = 1;
nodes = (
(70,34,o),
(155,97,o),
(161,125,cs),
(176,194,o),
(192,263,o),
(209,331,cs),
(232,426,o),
(256,521,o),
(276,615,cs),
(283,649,o),
(174,547,o),
(168,521,cs),
(153,453,o),
(140,385,o),
(127,318,cs),
(111,233,o),
(95,149,o),
(77,65,cs)
);
},
{
closed = 1;
nodes = (
(25,145,o),
(-32,-25,o),
(-1,3,cs),
(18,20,o),
(51,30,o),
(82,29,cs),
(107,28,o),
(131,19,o),
(144,1,cs),
(158,-19,o),
(221,151,o),
(208,169,cs),
(194,188,o),
(169,198,o),
(142,199,cs),
(109,200,o),
(74,189,o),
(49,167,cs)
);
},
{
closed = 1;
nodes = (
(81,407,o),
(24,237,o),
(34,237,cs),
(63,237,o),
(92,237,o),
(121,237,c),
(124,236,o),
(132,244,o),
(136,243,c),
(193,243,o),
(249,242,o),
(305,242,c),
(313,244,o),
(322,237,o),
(330,238,c),
(365,238,o),
(401,238,o),
(437,238,cs),
(449,238,o),
(509,408,o),
(497,408,cs),
(462,408,o),
(426,408,o),
(390,408,c),
(379,405,o),
(370,394,o),
(359,392,c),
(305,391,o),
(251,390,o),
(198,389,c),
(191,392,o),
(189,404,o),
(181,407,c),
(152,407,o),
(123,407,o),
(94,407,cs)
);
},
{
closed = 1;
nodes = (
(386,717,o),
(244,615,o),
(276,615,cs),
(287,615,o),
(286,474,o),
(285,327,cs),
(284,227,o),
(282,124,o),
(284,62,cs),
(286,6,o),
(307,-9,o),
(351,4,cs),
(386,14,o),
(507,143,o),
(467,132,cs),
(435,123,o),
(415,132,o),
(414,184,cs),
(412,228,o),
(415,297,o),
(418,370,cs),
(426,532,o),
(436,717,o),
(412,717,cs)
);
},
{
closed = 1;
nodes = (
(231,595,o),
(227,503,o),
(237,511,cs),
(266,534,o),
(295,557,o),
(324,580,cs),
(333,587,o),
(339,680,o),
(328,671,cs),
(299,648,o),
(270,626,o),
(241,603,cs)
);
}
);
width = 534;
}
);
unicode = 65;
},
{
glyphname = B;
lastChange = "2023-11-29 17:36:59 +0000";
layers = (
{
layerId = m01;
shapes = (
{
closed = 1;
nodes = (
(300,-3,o),
(423,143,o),
(400,147,cs),
(339,159,o),
(288,167,o),
(246,173,cs),
(134,189,o),
(79,187,o),
(51,168,cs),
(28,152,o),
(-31,-19,o),
(-3,0,cs),
(2,4,o),
(51,25,o),
(166,16,cs),
(198,14,o),
(236,9,o),
(280,1,cs)
);
},
{
closed = 1;
nodes = (
(175,627,o),
(95,576,o),
(88,535,cs),
(82,498,o),
(74,435,o),
(67,369,cs),
(54,250,o),
(42,121,o),
(42,113,cs),
(38,75,o),
(115,128,o),
(118,165,cs),
(118,165,o),
(129,269,o),
(141,375,cs),
(150,459,o),
(161,545,o),
(168,585,cs)
);
},
{
closed = 1;
nodes = (
(233,301,o),
(229,279,o),
(239,272,cs),
(253,264,o),
(288,281,o),
(325,326,cs),
(428,452,o),
(451,543,o),
(432,606,cs),
(399,710,o),
(245,733,o),
(138,705,cs),
(115,699,o),
(23,543,o),
(52,551,cs),
(174,582,o),
(266,558,o),
(299,503,cs),
(324,462,o),
(316,403,o),
(263,338,cs)
);
},
{
closed = 1;
nodes = (
(117,500,o),
(55,331,o),
(73,323,cs),
(143,296,o),
(196,274,o),
(236,256,cs),
(291,231,o),
(322,213,o),
(336,197,cs),
(357,173,o),
(342,155,o),
(319,126,cs),
(243,31,o),
(297,1,o),
(375,98,cs),
(448,189,o),
(476,253,o),
(471,300,cs),
(466,355,o),
(416,388,o),
(344,417,cs),
(285,441,o),
(212,463,o),
(135,493,cs)
);
}
);
width = 501;
}
);
unicode = 66;
},
{
glyphname = C;
lastChange = "2023-11-29 17:36:59 +0000";
layers = (
{
guides = (
{
pos = (693,541);
}
);
layerId = m01;
shapes = (
{
closed = 1;
nodes = (
(415,662,o),
(285,596,o),
(234,543,cs),
(57,359,o),
(8,219,o),
(23,126,cs),
(37,42,o),
(103,-5,o),
(175,-14,cs),
(231,-21,o),
(291,-5,o),
(333,35,cs),
(366,66,o),
(442,249,o),
(405,213,cs),
(358,170,o),
(295,151,o),
(244,161,cs),
(208,168,o),
(179,189,o),
(166,225,cs),
(142,294,o),
(181,419,o),
(362,607,cs)
);
},
{
closed = 1;
nodes = (
(414,593,o),
(467,761,o),
(435,727,cs),
(422,713,o),
(378,705,o),
(335,706,cs),
(302,708,o),
(269,715,o),
(251,732,cs),
(235,747,o),
(171,579,o),
(187,564,cs),
(205,548,o),
(237,538,o),
(272,536,cs),
(317,534,o),
(366,543,o),
(387,565,cs)
);
}
);
width = 459;
}
);
unicode = 67;
},
{
glyphname = D;
lastChange = "2023-11-29 17:52:07 +0000";
layers = (
{
layerId = m01;
shapes = (
{
closed = 1;
nodes = (
(96,725,o),
(32,554,o),
(50,545,cs),
(196,479,o),
(279,403,o),
(321,332,cs),
(369,247,o),
(360,168,o),
(328,115,cs),
(286,46,o),
(342,39,o),
(386,111,cs),
(465,239,o),
(471,359,o),
(417,464,cs),
(366,564,o),
(261,650,o),
(114,717,cs)
);
},
{
closed = 1;
nodes = (
(45,48,o),
(125,43,o),
(128,95,cs),
(139,309,o),
(170,614,o),
(150,641,cs),
(119,680,o),
(53,634,o),
(86,591,cs),
(87,591,o),
(61,358,o),
(48,99,cs)
);
},
{
closed = 1;
nodes = (
(304,-4,o),
(423,146,o),
(383,150,cs),
(322,157,o),
(274,164,o),
(236,169,cs),
(133,185,o),
(97,193,o),
(65,167,cs),
(41,148,o),
(-16,-22,o),
(13,1,cs),
(24,10,o),
(50,18,o),
(165,9,cs),
(194,7,o),
(229,4,o),
(271,0,cs)
);
}
);
width = 487;
}
);
unicode = 68;
},
{
glyphname = E;
lastChange = "2023-11-29 17:36:59 +0000";
layers = (
{
layerId = m01;
shapes = (
{
closed = 1;
nodes = (
(175,659,o),
(100,606,o),
(97,580,cs),
(78,393,o),
(57,203,o),
(39,29,cs),
(34,-15,o),
(55,0,o),
(63,6,cs),
(90,30,o),
(121,35,o),
(170,19,cs),
(238,-2,o),
(329,-18,o),
(379,25,cs),
(402,44,o),
(448,218,o),
(421,195,cs),
(385,166,o),
(294,169,o),
(232,189,cs),
(181,205,o),
(154,206,o),
(99,160,c),
(107,152,o),
(115,144,o),
(123,137,c),
(141,311,o),
(156,469,o),
(173,630,cs)
);
},
{
closed = 1;
nodes = (
(68,438,o),
(8,268,o),
(29,268,cs),
(137,269,o),
(245,269,o),
(352,269,cs),
(372,269,o),
(434,439,o),
(412,439,cs),
(304,438,o),
(196,438,o),
(89,438,cs)
);
},
{
closed = 1;
nodes = (
(440,549,o),
(487,723,o),
(460,703,cs),
(435,685,o),
(357,695,o),
(279,701,cs),
(206,707,o),
(132,709,o),
(98,681,cs),
(75,662,o),
(31,491,o),
(56,511,cs),
(92,540,o),
(181,530,o),
(264,523,cs),
(330,518,o),
(392,514,o),
(418,533,cs)
);
}
);
width = 468;
}
);
unicode = 69;
},
{
glyphname = F;
lastChange = "2023-11-29 17:36:59 +0000";
layers = (
{
layerId = m01;
shapes = (
{
closed = 1;
nodes = (
(190,749,o),
(105,633,o),
(97,554,cs),
(80,383,o),
(66,239,o),
(50,82,cs),
(48,57,o),
(126,99,o),
(128,122,cs),
(146,303,o),
(165,496,o),
(181,662,cs)
);
},
{
closed = 1;
nodes = (
(440,561,o),
(483,733,o),
(454,705,cs),
(437,689,o),
(369,691,o),
(297,694,cs),
(221,698,o),
(140,703,o),
(114,690,cs),
(91,678,o),
(37,508,o),
(62,520,cs),
(88,534,o),
(177,524,o),
(260,520,cs),
(329,516,o),
(393,516,o),
(414,537,cs)
);
},
{
closed = 1;
nodes = (
(367,285,o),
(415,459,o),
(389,444,cs),
(370,433,o),
(302,437,o),
(234,440,cs),
(171,442,o),
(107,443,o),
(86,431,cs),
(63,418,o),
(18,245,o),
(42,259,cs),
(65,272,o),
(154,266,o),
(231,264,cs),
(282,262,o),
(328,263,o),
(345,272,cs)
);
},
{
closed = 1;
nodes = (
(24,143,o),
(-32,-27,o),
(-1,2,cs),
(17,19,o),
(49,28,o),
(80,28,cs),
(105,27,o),
(130,18,o),
(144,0,cs),
(159,-19,o),
(221,150,o),
(208,168,cs),
(190,191,o),
(157,200,o),
(124,197,cs),
(96,195,o),
(69,184,o),
(49,166,cs)
);
}
);
width = 434;
}
);
unicode = 70;
},
{
glyphname = G;
lastChange = "2023-11-29 17:36:59 +0000";
layers = (
{
layerId = m01;
shapes = (
{
closed = 1;
nodes = (
(438,660,o),
(345,642,o),
(296,599,cs),
(203,517,o),
(136,440,o),
(92,368,cs),
(35,277,o),
(14,197,o),
(22,131,cs),
(28,81,o),
(51,39,o),
(88,9,cs),
(126,-22,o),
(185,-16,o),
(199,-16,cs),
(208,-16,o),
(387,140,o),
(419,187,cs),
(439,217,o),
(430,267,o),
(408,234,cs),
(391,209,o),
(279,116,o),
(279,116,cs),
(275,116,o),
(241,115,o),
(214,137,cs),
(182,164,o),
(161,197,o),
(155,236,cs),
(147,283,o),
(161,338,o),
(199,402,cs),
(237,465,o),
(298,536,o),
(388,615,cs)
);
},
{
closed = 1;
nodes = (
(263,351,o),
(175,219,o),
(236,267,cs),
(249,278,o),
(285,284,o),
(308,264,cs),
(321,252,o),
(330,232,o),
(328,200,cs),
(325,135,o),
(316,72,o),
(309,6,cs),
(303,-58,o),
(315,-105,o),
(350,-100,cs),
(377,-97,o),
(503,33,o),
(470,28,cs),
(447,25,o),
(444,50,o),
(451,114,cs),
(457,178,o),
(466,244,o),
(470,308,cs),
(471,343,o),
(456,374,o),
(432,393,cs),
(400,418,o),
(354,424,o),
(312,391,cs)
);
},
{
closed = 1;
nodes = (
(413,593,o),
(466,761,o),
(434,727,cs),
(421,713,o),
(376,705,o),
(333,706,cs),
(300,708,o),
(267,716,o),
(250,732,cs),
(234,747,o),
(170,579,o),
(186,564,cs),
(207,545,o),
(246,536,o),
(285,536,cs),
(326,536,o),
(367,546,o),
(386,565,cs)
);
}
);
width = 520;
}
);
unicode = 71;
},
{
glyphname = H;
lastChange = "2023-11-29 17:36:59 +0000";
layers = (
{
guides = (
{
pos = (93,-2);
},
{
pos = (194,711);
},
{
pos = (1005,217);
}
);
layerId = m01;
shapes = (
{
closed = 1;
nodes = (
(74,438,o),
(13,268,o),
(34,268,cs),
(178,269,o),
(323,269,o),
(467,269,cs),
(486,269,o),
(548,439,o),
(527,439,cs),
(383,438,o),
(238,438,o),
(94,438,cs)
);
},
{
closed = 1;
nodes = (
(158,702,o),
(28,571,o),
(67,580,cs),
(76,583,o),
(87,564,o),
(82,488,cs),
(72,361,o),
(62,234,o),
(53,106,cs),
(47,39,o),
(71,-4,o),
(94,0,cs),
(124,5,o),
(251,138,o),
(216,132,cs),
(181,126,o),
(193,155,o),
(197,218,cs),
(207,345,o),
(217,472,o),
(226,600,cs),
(231,660,o),
(220,717,o),
(189,710,cs)
);
},
{
closed = 1;
nodes = (
(427,702,o),
(297,571,o),
(336,580,cs),
(345,583,o),
(356,564,o),
(351,488,cs),
(341,361,o),
(331,234,o),
(322,106,cs),
(316,39,o),
(340,-4,o),
(363,0,cs),
(393,5,o),
(520,138,o),
(485,132,cs),
(450,126,o),
(462,155,o),
(466,218,cs),
(476,345,o),
(486,472,o),
(495,600,cs),
(500,660,o),
(489,717,o),
(458,710,cs)
);
}
);
width = 561;
}
);
unicode = 72;
},
{
glyphname = I;
lastChange = "2023-11-29 17:36:59 +0000";
layers = (
{
layerId = m01;
shapes = (
{
closed = 1;
nodes = (
(156,702,o),
(26,571,o),
(65,580,cs),
(74,583,o),
(85,565,o),
(80,488,cs),
(70,361,o),
(60,234,o),
(51,106,cs),
(45,39,o),
(69,-4,o),
(92,0,cs),
(122,5,o),
(249,138,o),
(214,132,cs),
(179,126,o),
(191,155,o),
(195,218,cs),
(205,345,o),
(215,472,o),
(224,600,cs),
(229,661,o),
(218,717,o),
(187,710,cs)
);
}
);
width = 275;
}
);
unicode = 73;
},
{
glyphname = J;
lastChange = "2023-11-29 17:36:59 +0000";
layers = (
{
layerId = m01;
shapes = (
{
closed = 1;
nodes = (
(103,-23,o),
(215,118,o),
(211,141,cs),
(206,160,o),
(190,187,o),
(169,209,cs),
(143,236,o),
(109,256,o),
(82,247,cs),
(54,237,o),
(-54,93,o),
(-18,105,cs),
(2,112,o),
(33,92,o),
(58,66,cs),
(78,45,o),
(94,21,o),
(97,3,cs)
);
},
{
closed = 1;
nodes = (
(322,702,o),
(192,571,o),
(231,580,cs),
(240,583,o),
(253,563,o),
(246,488,cs),
(236,399,o),
(226,309,o),
(217,219,cs),
(203,96,o),
(201,120,o),
(199,119,cs),
(128,64,o),
(56,-40,o),
(135,21,cs),
(356,193,o),
(356,281,o),
(361,331,cs),
(371,420,o),
(381,510,o),
(390,600,cs),
(397,661,o),
(384,717,o),
(353,710,cs)
);
}
);
width = 427;
}
);
unicode = 74;
},
{
glyphname = K;
lastChange = "2023-11-29 17:36:59 +0000";
layers = (
{
layerId = m01;
shapes = (
{
closed = 1;
nodes = (
(288,485,o),
(169,349,o),
(186,339,cs),
(195,334,o),
(217,260,o),
(246,182,cs),
(282,89,o),
(328,-9,o),
(377,1,cs),
(404,6,o),
(520,144,o),
(487,137,cs),
(453,131,o),
(414,209,o),
(379,292,cs),
(344,378,o),
(315,469,o),
(304,475,cs)
);
},
{
closed = 1;
nodes = (
(124,696,o),
(0,562,o),
(44,579,cs),
(54,583,o),
(61,566,o),
(56,496,cs),
(53,464,o),
(50,432,o),
(48,399,cs),
(41,306,o),
(34,212,o),
(27,118,cs),
(22,54,o),
(22,0,o),
(67,0,cs),
(93,0,o),
(224,152,o),
(191,152,cs),
(168,152,o),
(167,165,o),
(171,230,cs),
(177,298,o),
(182,366,o),
(187,434,cs),
(191,492,o),
(196,550,o),
(200,608,cs),
(205,663,o),
(198,723,o),
(160,709,cs)
);
},
{
closed = 1;
nodes = (
(492,572,o),
(546,740,o),
(515,711,cs),
(497,695,o),
(467,685,o),
(437,685,cs),
(410,686,o),
(384,694,o),
(370,713,cs),
(356,731,o),
(291,564,o),
(306,545,cs),
(320,527,o),
(344,517,o),
(370,516,cs),
(403,513,o),
(440,524,o),
(465,547,cs)
);
},
{
closed = 1;
nodes = (
(492,608,o),
(398,615,o),
(381,596,cs),
(359,570,o),
(68,260,o),
(60,251,cs),
(42,231,o),
(137,225,o),
(154,243,cs),
(154,243,o),
(459,571,o),
(475,588,cs)
);
}
);
width = 524;
}
);
unicode = 75;
},
{
glyphname = L;
lastChange = "2023-11-29 17:36:59 +0000";
layers = (
{
layerId = m01;
shapes = (
{
closed = 1;
nodes = (
(48,92,o),
(-3,-43,o),
(43,11,cs),
(70,42,o),
(122,59,o),
(169,37,cs),
(210,16,o),
(273,-19,o),
(325,18,cs),
(350,36,o),
(407,206,o),
(377,184,cs),
(337,155,o),
(304,170,o),
(263,189,cs),
(208,217,o),
(150,210,o),
(87,137,cs)
);
},
{
closed = 1;
nodes = (
(147,703,o),
(20,575,o),
(57,583,cs),
(77,587,o),
(71,561,o),
(65,490,cs),
(52,334,o),
(41,177,o),
(27,21,cs),
(24,-16,o),
(164,122,o),
(167,155,cs),
(179,303,o),
(194,450,o),
(207,598,cs),
(211,649,o),
(217,717,o),
(177,709,cs)
);
}
);
width = 421;
}
);
unicode = 76;
},
{
glyphname = M;
lastChange = "2023-11-29 17:36:59 +0000";
layers = (
{
layerId = m01;
shapes = (
{
closed = 1;
nodes = (
(261,727,o),
(140,608,o),
(151,590,cs),
(185,535,o),
(211,401,o),
(234,275,cs),
(257,147,o),
(279,27,o),
(307,1,cs),
(321,-12,o),
(442,108,o),
(427,121,cs),
(398,148,o),
(375,296,o),
(348,441,cs),
(327,552,o),
(303,660,o),
(271,710,cs)
);
},
{
closed = 1;
nodes = (
(35,67,o),
(123,109,o),
(131,134,cs),
(154,201,o),
(170,271,o),
(182,337,cs),
(212,505,o),
(214,650,o),
(214,652,cs),
(216,676,o),
(143,611,o),
(142,588,cs),
(141,581,o),
(135,485,o),
(111,357,cs),
(96,277,o),
(75,186,o),
(45,96,cs)
);
},
{
closed = 1;
nodes = (
(301,130,o),
(394,161,o),
(403,184,cs),
(419,225,o),
(434,266,o),
(448,305,cs),
(508,477,o),
(541,621,o),
(544,638,cs),
(548,669,o),
(468,617,o),
(464,586,cs),
(464,582,o),
(447,529,o),
(420,452,cs),
(392,371,o),
(354,264,o),
(311,156,cs)
);
},
{
closed = 1;
nodes = (
(598,737,o),
(469,613,o),
(469,585,cs),
(471,537,o),
(472,423,o),
(477,308,cs),
(485,157,o),
(502,3,o),
(544,1,cs),
(568,0,o),
(687,121,o),
(660,123,cs),
(626,125,o),
(612,248,o),
(606,384,cs),
(600,511,o),
(601,649,o),
(599,707,cs)
);
},
{
closed = 1;
nodes = (
(9,143,o),
(-47,-27,o),
(-16,2,cs),
(2,19,o),
(37,29,o),
(69,27,cs),
(95,26,o),
(120,18,o),
(133,0,cs),
(148,-19,o),
(210,150,o),
(197,168,cs),
(182,187,o),
(154,197,o),
(124,198,cs),
(91,198,o),
(56,187,o),
(34,166,cs)
);
}
);
width = 704;
}
);
unicode = 77;
},
{
glyphname = N;
lastChange = "2023-11-29 17:36:59 +0000";
layers = (
{
layerId = m01;
shapes = (
{
closed = 1;
nodes = (
(185,728,o),
(64,609,o),
(74,591,cs),
(120,508,o),
(168,392,o),
(218,280,cs),
(267,170,o),
(317,65,o),
(368,2,cs),
(380,-13,o),
(501,107,o),
(488,122,cs),
(439,183,o),
(389,287,o),
(341,395,cs),
(291,508,o),
(242,626,o),
(196,709,cs)
);
},
{
closed = 1;
nodes = (
(40,95,o),
(118,101,o),
(126,121,cs),
(146,172,o),
(165,592,o),
(165,595,cs),
(166,620,o),
(97,582,o),
(95,561,cs),
(94,547,o),
(67,166,o),
(48,117,cs)
);
},
{
closed = 1;
nodes = (
(-1,145,o),
(-57,-25,o),
(-26,4,cs),
(-8,20,o),
(22,30,o),
(52,30,cs),
(79,29,o),
(105,21,o),
(119,2,cs),
(134,-17,o),
(196,152,o),
(183,170,cs),
(167,190,o),
(139,200,o),
(109,200,cs),
(78,199,o),
(46,189,o),
(24,168,cs)
);
},
{
closed = 1;
nodes = (
(540,570,o),
(594,738,o),
(563,709,cs),
(545,692,o),
(514,683,o),
(484,683,cs),
(458,684,o),
(432,692,o),
(418,711,cs),
(404,729,o),
(339,562,o),
(354,543,cs),
(372,520,o),
(406,511,o),
(440,514,cs),
(467,517,o),
(494,527,o),
(513,545,cs)
);
},
{
closed = 1;
nodes = (
(361,78,o),
(442,104,o),
(451,127,cs),
(477,193,o),
(489,570,o),
(491,592,cs),
(492,616,o),
(421,582,o),
(419,560,cs),
(419,560,o),
(386,144,o),
(371,103,cs)
);
}
);
width = 552;
}
);
unicode = 78;
},
{
glyphname = O;
lastChange = "2023-11-29 17:54:51 +0000";
layers = (
{
layerId = m01;
shapes = (
{
closed = 1;
nodes = (
(126,33,o),
(108,-64,o),
(219,14,cs),
(336,97,o),
(465,253,o),
(443,443,cs),
(433,528,o),
(392,620,o),
(306,715,cs),
(292,731,o),
(195,546,o),
(210,529,cs),
(312,416,o),
(342,329,o),
(339,264,cs),
(334,152,o),
(229,105,o),
(227,104,cs)
);
},
{
closed = 1;
nodes = (
(291,591,o),
(351,763,o),
(284,698,cs),
(212,628,o),
(-12,313,o),
(12,124,cs),
(21,54,o),
(62,2,o),
(157,-15,cs),
(194,-22,o),
(351,119,o),
(307,127,cs),
(168,152,o),
(137,234,o),
(146,318,cs),
(157,425,o),
(234,536,o),
(234,536,cs)
);
}
);
width = 475;
}
);
unicode = 79;
},
{
glyphname = P;
lastChange = "2023-11-29 17:36:59 +0000";
layers = (
{
guides = (
{
pos = (108,716);
},
{
pos = (-222,587);
},
{
pos = (-231,373);
}
);
layerId = m01;
shapes = (
{
closed = 1;
nodes = (
(192,226,o),
(261,221,o),
(325,305,cs),
(426,436,o),
(448,535,o),
(424,603,cs),
(390,700,o),
(260,733,o),
(135,707,cs),
(113,702,o),
(30,564,o),
(57,569,cs),
(209,601,o),
(292,554,o),
(309,478,cs),
(319,429,o),
(301,367,o),
(255,307,cs)
);
},
{
closed = 1;
nodes = (
(261,214,o),
(378,364,o),
(329,369,cs),
(278,375,o),
(239,381,o),
(207,386,cs),
(144,396,o),
(114,403,o),
(93,394,cs),
(71,386,o),
(12,216,o),
(35,226,cs),
(42,228,o),
(65,232,o),
(138,226,cs),
(160,225,o),
(187,222,o),
(219,219,cs)
);
},
{
closed = 1;
nodes = (
(212,629,o),
(71,519,o),
(69,492,cs),
(61,363,o),
(53,235,o),
(44,106,cs),
(40,42,o),
(53,0,o),
(84,0,cs),
(108,0,o),
(235,130,o),
(206,130,cs),
(185,130,o),
(181,150,o),
(186,214,cs),
(194,343,o),
(202,471,o),
(211,600,cs)
);
}
);
width = 439;
}
);
unicode = 80;
},
{
glyphname = Q;
lastChange = "2023-11-29 18:50:38 +0000";
layers = (
{
layerId = m01;
shapes = (
{
closed = 1;
nodes = (
(262,335,o),
(218,290,o),
(220,273,cs),
(227,221,o),
(257,121,o),
(307,53,cs),
(343,5,o),
(388,-27,o),
(443,-13,cs),
(467,-7,o),
(540,194,o),
(513,187,cs),
(464,175,o),
(409,182,o),
(364,202,cs),
(311,226,o),
(271,268,o),
(264,319,cs)
);
},
{
closed = 1;
nodes = (
(135,33,o),
(117,-64,o),
(228,14,cs),
(344,96,o),
(472,251,o),
(452,438,cs),
(443,525,o),
(403,618,o),
(315,715,cs),
(301,731,o),
(204,546,o),
(219,529,cs),
(296,444,o),
(332,373,o),
(344,316,cs),
(375,166,o),
(238,105,o),
(236,104,cs)
);
},
{
closed = 1;
nodes = (
(300,591,o),
(360,763,o),
(293,698,cs),
(216,623,o),
(-37,264,o),
(31,83,cs),
(49,34,o),
(91,-2,o),
(166,-15,cs),
(203,-22,o),
(360,119,o),
(316,127,cs),
(214,145,o),
(171,194,o),
(158,252,cs),
(131,374,o),
(243,536,o),
(243,536,cs)
);
}
);
width = 554;
}
);
unicode = 81;
},
{
glyphname = R;
lastChange = "2023-11-29 17:36:59 +0000";
layers = (
{
guides = (
{
angle = 180;
pos = (337,360);
},
{
pos = (183,564);
}
);
layerId = m01;
shapes = (
{
closed = 1;
nodes = (
(179,621,o),
(108,470,o),
(110,421,cs),
(112,355,o),
(157,259,o),
(212,174,cs),
(284,64,o),
(372,-25,o),
(403,3,cs),
(428,26,o),
(484,195,o),
(453,167,cs),
(429,145,o),
(364,209,o),
(304,296,cs),
(241,388,o),
(183,506,o),
(180,575,cs)
);
},
{
closed = 1;
nodes = (
(19,143,o),
(-37,-27,o),
(-6,2,cs),
(13,19,o),
(45,29,o),
(76,27,cs),
(101,26,o),
(125,18,o),
(139,0,cs),
(154,-19,o),
(216,150,o),
(203,168,cs),
(186,189,o),
(156,199,o),
(124,198,cs),
(95,196,o),
(65,186,o),
(44,166,cs)
);
},
{
closed = 1;
nodes = (
(178,642,o),
(85,560,o),
(81,462,cs),
(73,287,o),
(79,300,o),
(59,63,cs),
(55,17,o),
(134,64,o),
(137,105,cs),
(159,358,o),
(165,373,o),
(173,540,cs)
);
},
{
closed = 1;
nodes = (
(183,245,o),
(259,251,o),
(319,332,cs),
(428,478,o),
(444,575,o),
(413,635,cs),
(368,724,o),
(221,732,o),
(116,695,cs),
(92,687,o),
(1,530,o),
(30,541,cs),
(165,588,o),
(271,568,o),
(296,498,cs),
(311,457,o),
(298,399,o),
(245,328,cs)
);
}
);
width = 502;
}
);
unicode = 82;
},
{
glyphname = S;
lastChange = "2023-11-29 17:36:59 +0000";
layers = (
{
layerId = m01;
shapes = (
{
closed = 1;
nodes = (
(265,418,o),
(389,525,o),
(415,574,cs),
(433,609,o),
(423,661,o),
(390,691,cs),
(354,724,o),
(290,731,o),
(203,660,cs),
(134,603,o),
(93,526,o),
(169,588,cs),
(191,606,o),
(234,593,o),
(264,566,cs),
(292,541,o),
(309,505,o),
(291,470,cs)
);
},
{
closed = 1;
nodes = (
(204,663,o),
(78,551,o),
(60,509,cs),
(16,409,o),
(93,359,o),
(162,294,cs),
(227,234,o),
(302,188,o),
(260,86,cs),
(245,49,o),
(370,163,o),
(386,202,cs),
(438,326,o),
(349,356,o),
(284,416,cs),
(215,479,o),
(150,539,o),
(186,623,cs)
);
},
{
closed = 1;
nodes = (
(155,274,o),
(27,159,o),
(10,117,cs),
(-6,77,o),
(19,12,o),
(74,-9,cs),
(113,-24,o),
(169,-16,o),
(235,40,cs),
(305,99,o),
(340,171,o),
(263,106,cs),
(249,95,o),
(207,106,o),
(174,131,cs),
(144,154,o),
(121,189,o),
(136,227,cs)
);
}
);
width = 434;
}
);
unicode = 83;
},
{
glyphname = T;
lastChange = "2023-11-29 17:36:59 +0000";
layers = (
{
layerId = m01;
shapes = (
{
closed = 1;
nodes = (
(427,565,o),
(487,733,o),
(440,710,cs),
(413,697,o),
(337,705,o),
(261,709,cs),
(188,712,o),
(114,712,o),
(85,686,cs),
(61,665,o),
(18,494,o),
(43,516,cs),
(65,534,o),
(118,537,o),
(178,536,cs),
(258,534,o),
(349,527,o),
(388,546,cs)
);
},
{
closed = 1;
nodes = (
(347,628,o),
(296,646,o),
(263,602,cs),
(139,443,o),
(78,262,o),
(70,164,cs),
(61,53,o),
(126,-31,o),
(210,-14,cs),
(243,-7,o),
(374,106,o),
(336,98,cs),
(274,85,o),
(192,177,o),
(200,280,cs),
(205,336,o),
(229,475,o),
(311,582,cs)
);
}
);
width = 422;
}
);
unicode = 84;
},
{
glyphname = U;
lastChange = "2023-11-29 17:36:59 +0000";
layers = (
{
layerId = m01;
shapes = (
{
closed = 1;
nodes = (
(405,376,o),
(365,382,o),
(362,355,cs),
(335,114,o),
(263,124,o),
(251,124,cs),
(202,120,o),
(190,203,o),
(199,293,cs),
(210,394,o),
(219,495,o),
(229,596,cs),
(236,664,o),
(204,723,o),
(152,706,cs),
(119,695,o),
(-3,565,o),
(38,578,cs),
(82,593,o),
(89,550,o),
(85,502,cs),
(74,401,o),
(65,300,o),
(55,199,cs),
(44,96,o),
(107,-23,o),
(203,-16,cs),
(327,-6,o),
(387,220,o),
(402,351,cs)
);
},
{
closed = 1;
nodes = (
(425,-1,o),
(541,117,o),
(513,117,cs),
(471,117,o),
(473,199,o),
(482,293,cs),
(493,394,o),
(503,495,o),
(513,596,cs),
(520,664,o),
(487,723,o),
(435,706,cs),
(402,695,o),
(280,565,o),
(321,578,cs),
(365,593,o),
(374,550,o),
(369,502,cs),
(358,401,o),
(348,300,o),
(338,199,cs),
(326,88,o),
(348,-1,o),
(401,-1,cs)
);
}
);
width = 557;
}
);
unicode = 85;
},
{
glyphname = V;
lastChange = "2023-11-29 18:45:55 +0000";
layers = (
{
layerId = m01;
shapes = (
{
closed = 1;
nodes = (
(499,646,o),
(416,627,o),
(410,607,cs),
(351,408,o),
(261,128,o),
(247,39,cs),
(243,15,o),
(336,105,o),
(339,125,cs),
(349,188,o),
(439,442,o),
(492,623,cs)
);
},
{
closed = 1;
nodes = (
(533,572,o),
(587,740,o),
(556,711,cs),
(537,693,o),
(503,684,o),
(471,686,cs),
(447,687,o),
(424,696,o),
(411,713,cs),
(397,731,o),
(332,564,o),
(347,545,cs),
(362,525,o),
(389,516,o),
(418,515,cs),
(450,515,o),
(483,526,o),
(506,547,cs)
);
},
{
closed = 1;
nodes = (
(248,6,o),
(372,144,o),
(321,121,cs),
(309,115,o),
(243,487,o),
(215,635,cs),
(205,689,o),
(158,721,o),
(124,711,cs),
(92,701,o),
(-31,571,o),
(8,583,cs),
(46,595,o),
(77,563,o),
(87,511,cs),
(113,371,o),
(163,-33,o),
(203,-15,cs)
);
}
);
width = 535;
}
);
unicode = 86;
},
{
glyphname = W;
lastChange = "2023-11-29 18:45:45 +0000";
layers = (
{
layerId = m01;
shapes = (
{
closed = 1;
nodes = (
(402,-18,o),
(530,110,o),
(520,127,cs),
(462,232,o),
(477,659,o),
(419,711,cs),
(405,724,o),
(284,605,o),
(299,591,cs),
(351,543,o),
(332,110,o),
(392,1,cs)
);
},
{
closed = 1;
nodes = (
(694,641,o),
(604,603,o),
(595,578,cs),
(574,517,o),
(554,452,o),
(535,390,cs),
(481,208,o),
(440,47,o),
(439,42,cs),
(431,14,o),
(518,97,o),
(525,122,cs),
(527,129,o),
(559,233,o),
(604,372,cs),
(628,446,o),
(656,529,o),
(685,614,cs)
);
},
{
closed = 1;
nodes = (
(447,647,o),
(356,607,o),
(348,584,cs),
(335,551,o),
(316,488,o),
(296,417,cs),
(252,265,o),
(203,77,o),
(203,77,cs),
(154,16,o),
(217,54,o),
(261,109,cs),
(282,135,o),
(327,275,o),
(367,403,cs),
(397,498,o),
(424,586,o),
(436,618,cs)
);
},
{
closed = 1;
nodes = (
(148,-19,o),
(276,109,o),
(269,128,cs),
(245,195,o),
(240,323,o),
(233,441,cs),
(224,592,o),
(211,729,o),
(146,709,cs),
(114,700,o),
(-1,577,o),
(38,589,cs),
(86,603,o),
(96,502,o),
(101,375,cs),
(106,247,o),
(108,93,o),
(141,2,cs)
);
},
{
closed = 1;
nodes = (
(719,573,o),
(773,742,o),
(742,712,cs),
(724,695,o),
(691,686,o),
(660,686,cs),
(632,687,o),
(607,696,o),
(593,714,cs),
(579,732,o),
(515,566,o),
(529,546,cs),
(545,525,o),
(577,515,o),
(610,516,cs),
(640,518,o),
(671,528,o),
(692,548,cs)
);
}
);
width = 696;
}
);
unicode = 87;
},
{
glyphname = X;
lastChange = "2023-11-29 17:36:59 +0000";
layers = (
{
layerId = m01;
shapes = (
{
closed = 1;
nodes = (
(476,612,o),
(381,596,o),
(365,572,cs),
(356,560,o),
(303,472,o),
(245,378,cs),
(173,259,o),
(95,130,o),
(95,130,cs),
(80,105,o),
(176,124,o),
(189,146,cs),
(195,156,o),
(243,234,o),
(296,323,cs),
(364,435,o),
(442,563,o),
(459,588,cs)
);
},
{
closed = 1;
nodes = (
(402,-4,o),
(508,140,o),
(472,127,cs),
(441,116,o),
(384,267,o),
(325,418,cs),
(263,576,o),
(198,735,o),
(156,713,cs),
(123,696,o),
(19,552,o),
(60,573,cs),
(91,589,o),
(151,429,o),
(213,271,cs),
(273,120,o),
(334,-28,o),
(372,-15,cs)
);
},
{
closed = 1;
nodes = (
(85,-47,o),
(198,91,o),
(200,122,cs),
(201,144,o),
(189,170,o),
(173,193,cs),
(153,221,o),
(126,245,o),
(106,250,cs),
(88,255,o),
(-24,113,o),
(-2,108,cs),
(9,105,o),
(31,85,o),
(50,61,cs),
(70,36,o),
(87,7,o),
(86,-12,cs)
);
},
{
closed = 1;
nodes = (
(454,448,o),
(565,591,o),
(543,596,cs),
(528,600,o),
(505,622,o),
(486,647,cs),
(468,670,o),
(454,697,o),
(455,716,cs),
(456,749,o),
(343,616,o),
(341,582,cs),
(340,561,o),
(352,536,o),
(368,513,cs),
(389,483,o),
(417,458,o),
(435,454,cs)
);
}
);
width = 541;
}
);
unicode = 88;
},
{
glyphname = Y;
lastChange = "2023-11-29 17:57:28 +0000";
layers = (
{
layerId = m01;
shapes = (
{
closed = 1;
nodes = (
(514,674,o),
(426,656,o),
(407,597,cs),
(403,584,o),
(170,128,o),
(163,113,cs),
(132,53,o),
(212,51,o),
(243,111,cs),
(245,114,o),
(484,579,o),
(495,613,cs)
);
},
{
closed = 1;
nodes = (
(531,572,o),
(585,740,o),
(554,711,cs),
(536,695,o),
(506,685,o),
(476,685,cs),
(449,686,o),
(423,694,o),
(409,713,cs),
(395,731,o),
(330,564,o),
(345,545,cs),
(362,524,o),
(393,514,o),
(424,515,cs),
(453,517,o),
(483,528,o),
(504,547,cs)
);
},
{
closed = 1;
nodes = (
(272,336,o),
(381,461,o),
(327,433,cs),
(302,420,o),
(278,481,o),
(252,549,cs),
(221,632,o),
(188,725,o),
(147,709,cs),
(111,695,o),
(-9,565,o),
(35,583,cs),
(66,595,o),
(91,504,o),
(122,424,cs),
(150,352,o),
(182,288,o),
(225,311,cs)
);
},
{
closed = 1;
nodes = (
(114,143,o),
(58,-27,o),
(89,2,cs),
(108,19,o),
(140,29,o),
(171,27,cs),
(196,26,o),
(220,18,o),
(234,0,cs),
(249,-19,o),
(311,150,o),
(298,168,cs),
(284,186,o),
(260,196,o),
(234,197,cs),
(201,200,o),
(164,189,o),
(139,166,cs)
);
}
);
width = 513;
}
);
unicode = 89;
},
{
glyphname = Z;
lastChange = "2023-11-29 17:36:59 +0000";
layers = (
{
layerId = m01;
shapes = (
{
closed = 1;
nodes = (
(22,122,o),
(-25,-40,o),
(30,6,cs),
(63,35,o),
(111,27,o),
(162,16,cs),
(229,1,o),
(300,-20,o),
(354,25,cs),
(377,44,o),
(423,218,o),
(396,195,cs),
(348,155,o),
(290,177,o),
(228,190,cs),
(176,201,o),
(120,206,o),
(66,160,cs)
);
},
{
closed = 1;
nodes = (
(97,657,o),
(42,487,o),
(76,524,cs),
(100,550,o),
(155,545,o),
(218,538,cs),
(277,532,o),
(344,525,o),
(399,540,cs),
(420,546,o),
(481,717,o),
(457,710,cs),
(396,692,o),
(325,705,o),
(261,712,cs),
(204,718,o),
(154,718,o),
(124,686,cs)
);
},
{
closed = 1;
nodes = (
(433,604,o),
(335,590,o),
(326,568,cs),
(268,426,o),
(81,211,o),
(46,100,cs),
(39,78,o),
(138,94,o),
(144,114,cs),
(177,219,o),
(364,434,o),
(424,582,cs)
);
},
{
closed = 1;
nodes = (
(135,444,o),
(76,273,o),
(104,292,cs),
(123,305,o),
(158,292,o),
(196,277,cs),
(238,260,o),
(283,240,o),
(312,252,cs),
(334,261,o),
(394,431,o),
(368,420,cs),
(348,412,o),
(317,423,o),
(284,437,cs),
(238,456,o),
(187,480,o),
(158,460,cs)
);
}
);
width = 467;
}
);
unicode = 90;
},
{
glyphname = a;
lastChange = "2023-11-29 17:36:59 +0000";
layers = (
{
background = {
shapes = (
{
closed = 1;
nodes = (
);
}
);
};
guides = (
{
pos = (289,715);
}
);
layerId = m01;
shapes = (
{
closed = 1;
nodes = (
(300,-10,o),
(434,128,o),
(409,136,cs),
(379,146,o),
(384,224,o),
(398,357,cs),
(405,418,o),
(413,491,o),
(420,574,cs),
(424,614,o),
(413,676,o),
(379,701,cs),
(341,729,o),
(274,712,o),
(165,571,cs),
(99,486,o),
(145,481,o),
(213,569,cs),
(214,571,o),
(244,576,o),
(264,552,cs),
(278,535,o),
(288,504,o),
(284,450,cs),
(279,394,o),
(273,343,o),
(268,297,cs),
(248,117,o),
(233,10,o),
(279,-4,cs)
);
},
{
closed = 1;
nodes = (
(54,398,o),
(-7,228,o),
(14,228,cs),
(146,229,o),
(279,229,o),
(411,229,cs),
(430,229,o),
(492,399,o),
(471,399,cs),
(339,398,o),
(206,398,o),
(74,398,cs)
);
},
{
closed = 1;
nodes = (
(261,667,o),
(167,592,o),
(132,526,cs),
(117,498,o),
(100,454,o),
(93,407,cs),
(78,308,o),
(63,154,o),
(45,16,cs),
(42,-15,o),
(74,-2,o),
(101,23,cs),
(119,39,o),
(134,61,o),
(137,78,cs),
(155,224,o),
(172,385,o),
(187,489,cs),
(194,536,o),
(221,592,o),
(222,594,cs)
);
}
);
width = 506;
}
);
unicode = 97;
},
{
glyphname = b;
lastChange = "2023-11-29 17:36:59 +0000";
layers = (
{
layerId = m01;
shapes = (
{
closed = 1;
nodes = (
(34,207,o),
(47,101,o),
(67,184,cs),
(91,286,o),
(252,332,o),
(328,281,cs),
(366,257,o),
(383,209,o),
(355,133,cs),
(333,76,o),
(443,196,o),
(463,249,cs),
(493,327,o),
(474,384,o),
(432,420,cs),
(331,504,o),
(96,466,o),
(51,278,cs)
);
},
{
closed = 1;
nodes = (
(147,376,o),
(138,285,o),
(219,345,cs),
(430,500,o),
(454,625,o),
(402,682,cs),
(366,722,o),
(293,729,o),
(222,693,cs),
(156,659,o),
(91,589,o),
(54,473,cs),
(20,364,o),
(98,342,o),
(134,455,cs),
(162,543,o),
(262,572,o),
(294,548,cs),
(314,532,o),
(304,492,o),
(221,431,cs)
);
},
{
closed = 1;
nodes = (
(146,497,o),
(70,521,o),
(55,469,cs),
(30,378,o),
(21,219,o),
(21,145,cs),
(21,92,o),
(107,99,o),
(107,153,cs),
(107,213,o),
(112,372,o),
(133,449,cs)
);
},
{
closed = 1;
nodes = (
(490,334,o),
(465,354,o),
(431,257,cs),
(398,167,o),
(285,136,o),
(205,155,cs),
(140,171,o),
(98,219,o),
(138,295,cs),
(176,368,o),
(79,277,o),
(40,203,cs),
(-17,95,o),
(54,1,o),
(157,-12,cs),
(256,-25,o),
(384,38,o),
(455,237,cs)
);
}
);
width = 497;
}
);
unicode = 98;
},
{
glyphname = c;
lastChange = "2023-11-29 17:36:59 +0000";
layers = (
{
layerId = m01;
shapes = (
{
closed = 1;
nodes = (
(334,455,o),
(446,596,o),
(441,619,cs),
(435,643,o),
(403,707,o),
(346,715,cs),
(302,721,o),
(242,695,o),
(167,594,cs),
(37,420,o),
(0,253,o),
(21,138,cs),
(39,41,o),
(97,-19,o),
(176,-14,cs),
(227,-11,o),
(286,18,o),
(347,82,cs),
(430,168,o),
(440,264,o),
(351,172,cs),
(274,92,o),
(201,152,o),
(167,250,cs),
(137,336,o),
(137,452,o),
(193,526,cs),
(217,558,o),
(304,578,o),
(327,481,cs)
);
}
);
width = 456;
}
);
unicode = 99;
},
{
glyphname = d;
lastChange = "2023-11-29 17:55:10 +0000";
layers = (
{
layerId = m01;
shapes = (
{
closed = 1;
nodes = (
(104,725,o),
(27,562,o),
(45,553,cs),
(177,480,o),
(251,404,o),
(291,342,cs),
(337,272,o),
(340,220,o),
(336,213,cs),
(286,111,o),
(358,121,o),
(408,223,cs),
(450,310,o),
(452,386,o),
(420,455,cs),
(377,550,o),
(270,634,o),
(121,715,cs)
);
},
{
closed = 1;
nodes = (
(148,591,o),
(72,567,o),
(70,547,cs),
(57,395,o),
(43,243,o),
(30,91,cs),
(28,69,o),
(104,92,o),
(106,113,cs),
(119,265,o),
(133,417,o),
(146,569,cs)
);
},
{
closed = 1;
nodes = (
(28,232,o),
(-34,48,o),
(-17,37,cs),
(27,7,o),
(83,-17,o),
(146,-11,cs),
(213,-4,o),
(288,39,o),
(365,152,cs),
(421,232,o),
(384,281,o),
(327,198,cs),
(308,171,o),
(269,155,o),
(217,157,cs),
(169,160,o),
(109,179,o),
(45,221,cs)
);
}
);
width = 472;
}
);
unicode = 100;
},
{
glyphname = e;
lastChange = "2023-11-29 17:36:59 +0000";
layers = (
{
layerId = m01;
shapes = (
{
closed = 1;
nodes = (
(306,455,o),
(433,583,o),
(426,602,cs),
(388,705,o),
(313,730,o),
(262,706,cs),
(151,654,o),
(97,501,o),
(69,353,cs),
(42,219,o),
(37,88,o),
(28,41,cs),
(17,-16,o),
(37,-1,o),
(39,0,cs),
(84,15,o),
(116,23,o),
(166,14,cs),
(226,4,o),
(307,-27,o),
(372,26,cs),
(414,61,o),
(455,227,o),
(404,186,cs),
(381,167,o),
(282,174,o),
(226,184,cs),
(182,191,o),
(146,193,o),
(101,176,c),
(104,163,o),
(108,149,o),
(112,135,c),
(161,387,o),
(178,538,o),
(212,554,cs),
(238,566,o),
(262,572,o),
(298,476,cs)
);
},
{
closed = 1;
nodes = (
(58,438,o),
(-2,268,o),
(19,268,cs),
(127,269,o),
(235,269,o),
(342,269,cs),
(362,269,o),
(424,439,o),
(402,439,cs),
(294,438,o),
(186,438,o),
(79,438,cs)
);
}
);
width = 468;
}
);
unicode = 101;
},
{
glyphname = f;
lastChange = "2023-11-29 17:36:59 +0000";
layers = (
{
layerId = m01;
shapes = (
{
closed = 1;
nodes = (
(439,604,o),
(475,759,o),
(431,701,cs),
(410,674,o),
(347,659,o),
(305,659,cs),
(250,659,o),
(188,681,o),
(155,710,cs),
(125,738,o),
(76,578,o),
(76,574,cs),
(58,384,o),
(40,201,o),
(23,18,cs),
(18,-28,o),
(98,19,o),
(101,60,cs),
(121,271,o),
(141,480,o),
(160,684,c),
(134,638,o),
(107,593,o),
(81,548,c),
(120,511,o),
(188,489,o),
(245,489,cs),
(299,489,o),
(348,486,o),
(399,553,cs)
);
},
{
closed = 1;
nodes = (
(339,226,o),
(389,399,o),
(368,400,cs),
(270,400,o),
(171,401,o),
(73,402,cs),
(54,402,o),
(4,229,o),
(25,228,cs),
(123,228,o),
(222,227,o),
(320,226,cs)
);
}
);
width = 431;
}
);
unicode = 102;
},
{
glyphname = g;
lastChange = "2023-11-29 18:45:28 +0000";
layers = (
{
layerId = m01;
shapes = (
{
closed = 1;
nodes = (
(282,350,o),
(194,218,o),
(255,266,cs),
(268,277,o),
(299,285,o),
(322,273,cs),
(338,264,o),
(350,245,o),
(347,209,cs),
(345,168,o),
(337,126,o),
(332,85,cs),
(324,14,o),
(348,-5,o),
(356,-14,cs),
(369,-29,o),
(497,98,o),
(484,112,cs),
(478,119,o),
(466,128,o),
(474,193,cs),
(478,234,o),
(486,275,o),
(489,317,cs),
(491,352,o),
(475,381,o),
(451,398,cs),
(419,421,o),
(373,422,o),
(331,390,cs)
);
},
{
closed = 1;
nodes = (
(367,482,o),
(494,609,o),
(484,626,cs),
(472,647,o),
(448,688,o),
(409,705,cs),
(373,720,o),
(325,716,o),
(262,659,cs),
(198,601,o),
(139,482,o),
(212,549,cs),
(264,596,o),
(326,551,o),
(356,500,cs)
);
},
{
closed = 1;
nodes = (
(275,627,o),
(204,619,o),
(135,532,cs),
(19,389,o),
(0,212,o),
(38,99,cs),
(60,33,o),
(101,-11,o),
(153,-15,cs),
(192,-19,o),
(237,0,o),
(285,48,cs),
(324,87,o),
(435,317,o),
(436,321,cs),
(451,367,o),
(383,348,o),
(368,303,cs),
(331,191,o),
(295,156,o),
(295,156,cs),
(233,94,o),
(181,146,o),
(157,234,cs),
(133,326,o),
(141,460,o),
(207,542,cs)
);
}
);
width = 529;
}
);
unicode = 103;
},
{
glyphname = h;
lastChange = "2023-11-29 17:36:59 +0000";
layers = (
{
layerId = m01;
shapes = (
{
closed = 1;
nodes = (
(74,437,o),
(13,267,o),
(34,267,cs),
(178,268,o),
(323,268,o),
(467,268,cs),
(486,268,o),
(548,438,o),
(527,438,cs),
(383,437,o),
(238,437,o),
(94,437,cs)
);
},
{
closed = 1;
nodes = (
(195,726,o),
(65,603,o),
(75,584,cs),
(92,552,o),
(93,548,o),
(88,500,cs),
(77,369,o),
(69,237,o),
(59,106,cs),
(54,39,o),
(68,20,o),
(97,0,cs),
(113,-11,o),
(240,116,o),
(223,128,cs),
(200,144,o),
(196,153,o),
(201,214,cs),
(211,345,o),
(218,477,o),
(230,608,cs),
(234,662,o),
(224,674,o),
(205,708,cs)
);
},
{
closed = 1;
nodes = (
(463,726,o),
(333,603,o),
(343,584,cs),
(360,553,o),
(360,548,o),
(356,500,cs),
(346,369,o),
(337,237,o),
(327,106,cs),
(322,39,o),
(336,20,o),
(365,0,cs),
(381,-11,o),
(508,116,o),
(491,128,cs),
(468,144,o),
(464,153,o),
(469,214,cs),
(479,345,o),
(488,477,o),
(498,608,cs),
(502,662,o),
(492,673,o),
(473,708,cs)
);
}
);
width = 561;
}
);
unicode = 104;
},
{
glyphname = i;
lastChange = "2023-11-29 17:36:59 +0000";
layers = (
{
layerId = m01;
shapes = (
{
closed = 1;
nodes = (
(187,726,o),
(57,603,o),
(67,584,cs),
(84,553,o),
(85,548,o),
(80,490,cs),
(70,362,o),
(61,234,o),
(51,106,cs),
(46,39,o),
(60,20,o),
(89,0,cs),
(105,-11,o),
(232,116,o),
(215,128,cs),
(192,144,o),
(188,153,o),
(193,214,cs),
(202,342,o),
(211,470,o),
(222,598,cs),
(227,662,o),
(216,673,o),
(197,708,cs)
);
}
);
width = 273;
}
);
unicode = 105;
},
{
glyphname = j;
lastChange = "2023-11-29 17:36:59 +0000";
layers = (
{
layerId = m01;
shapes = (
{
closed = 1;
nodes = (
(149,307,o),
(20,198,o),
(-2,153,cs),
(-29,98,o),
(-11,39,o),
(30,7,cs),
(82,-32,o),
(170,-30,o),
(254,77,cs),
(303,141,o),
(308,230,o),
(254,161,cs),
(223,121,o),
(172,115,o),
(139,137,cs),
(109,157,o),
(95,198,o),
(124,257,cs)
);
},
{
closed = 1;
nodes = (
(435,741,o),
(299,652,o),
(274,597,cs),
(263,572,o),
(263,566,o),
(257,506,cs),
(247,379,o),
(239,253,o),
(229,126,cs),
(221,13,o),
(279,132,o),
(278,131,cs),
(226,99,o),
(123,-24,o),
(186,15,cs),
(271,67,o),
(368,203,o),
(371,234,cs),
(380,361,o),
(388,488,o),
(399,614,cs),
(404,676,o),
(405,674,o),
(410,685,cs)
);
},
{
closed = 1;
nodes = (
(354,618,o),
(419,727,o),
(366,685,cs),
(338,663,o),
(304,658,o),
(272,664,cs),
(231,670,o),
(196,693,o),
(187,713,cs),
(178,735,o),
(75,590,o),
(85,567,cs),
(91,550,o),
(122,532,o),
(165,530,cs),
(206,528,o),
(257,540,o),
(308,581,cs)
);
}
);
width = 433;
}
);
unicode = 106;
},
{
glyphname = k;
lastChange = "2023-11-29 17:36:59 +0000";
layers = (
{
layerId = m01;
shapes = (
{
closed = 1;
nodes = (
(206,373,o),
(99,236,o),
(144,260,cs),
(209,294,o),
(260,283,o),
(299,251,cs),
(366,195,o),
(393,72,o),
(379,6,cs),
(371,-33,o),
(491,97,o),
(499,132,cs),
(512,194,o),
(493,309,o),
(433,373,cs),
(391,418,o),
(329,437,o),
(244,392,cs)
);
},
{
closed = 1;
nodes = (
(157,721,o),
(26,591,o),
(42,578,cs),
(47,575,o),
(65,551,o),
(61,496,cs),
(51,370,o),
(41,244,o),
(32,118,cs),
(26,48,o),
(33,20,o),
(69,0,cs),
(89,-11,o),
(220,140,o),
(199,152,cs),
(185,160,o),
(172,170,o),
(176,230,cs),
(186,356,o),
(196,482,o),
(205,608,cs),
(211,677,o),
(183,701,o),
(172,710,cs)
);
},
{
closed = 1;
nodes = (
(546,722,o),
(441,712,o),
(421,690,cs),
(393,658,o),
(138,320,o),
(134,315,cs),
(96,266,o),
(168,249,o),
(204,295,cs),
(210,303,o),
(511,682,o),
(525,698,cs)
);
}
);
width = 538;
}
);
unicode = 107;
},
{
glyphname = l;
lastChange = "2023-11-29 17:36:59 +0000";
layers = (
{
layerId = m01;
shapes = (
{
closed = 1;
nodes = (
(167,721,o),
(36,591,o),
(52,578,cs),
(57,575,o),
(75,551,o),
(71,496,cs),
(61,370,o),
(51,244,o),
(42,118,cs),
(37,54,o),
(37,0,o),
(82,0,cs),
(108,0,o),
(239,152,o),
(206,152,cs),
(183,152,o),
(182,165,o),
(186,230,cs),
(196,356,o),
(206,482,o),
(215,608,cs),
(221,677,o),
(193,701,o),
(182,710,cs)
);
},
{
closed = 1;
nodes = (
(151,125,o),
(75,-7,o),
(122,30,cs),
(147,50,o),
(175,57,o),
(201,55,cs),
(248,52,o),
(290,23,o),
(299,1,cs),
(308,-22,o),
(410,127,o),
(401,147,cs),
(394,164,o),
(364,187,o),
(323,194,cs),
(285,201,o),
(236,194,o),
(188,156,cs)
);
}
);
width = 422;
}
);
unicode = 108;
},
{
glyphname = m;
lastChange = "2023-11-29 17:36:59 +0000";
layers = (
{
layerId = m01;
shapes = (
{
closed = 1;
nodes = (
(210,719,o),
(82,592,o),
(99,580,cs),
(131,557,o),
(166,418,o),
(191,273,cs),
(207,176,o),
(220,76,o),
(224,4,cs),
(225,-23,o),
(354,103,o),
(352,128,cs),
(347,221,o),
(329,363,o),
(305,484,cs),
(282,595,o),
(254,687,o),
(225,708,cs)
);
},
{
closed = 1;
nodes = (
(-16,-25,o),
(61,10,o),
(72,54,cs),
(87,114,o),
(99,173,o),
(110,230,cs),
(147,436,o),
(157,602,o),
(158,609,cs),
(161,647,o),
(91,601,o),
(88,567,cs),
(88,566,o),
(80,479,o),
(61,355,cs),
(46,259,o),
(25,140,o),
(-4,24,cs)
);
},
{
closed = 1;
nodes = (
(207,56,o),
(299,115,o),
(324,165,cs),
(354,226,o),
(380,287,o),
(402,344,cs),
(463,502,o),
(494,629,o),
(494,631,cs),
(506,677,o),
(408,600,o),
(398,559,cs),
(395,550,o),
(343,332,o),
(236,115,cs)
);
},
{
closed = 1;
nodes = (
(519,706,o),
(391,576,o),
(419,576,cs),
(438,576,o),
(434,417,o),
(438,263,cs),
(441,155,o),
(448,48,o),
(470,2,cs),
(479,-17,o),
(607,110,o),
(598,128,cs),
(574,180,o),
(569,304,o),
(567,425,cs),
(565,568,o),
(566,706,o),
(541,706,cs)
);
}
);
width = 633;
}
);
unicode = 109;
},
{
glyphname = n;
lastChange = "2023-11-29 17:36:59 +0000";
layers = (
{
layerId = m01;
shapes = (
{
closed = 1;
nodes = (
(162,722,o),
(41,603,o),
(51,585,cs),
(99,499,o),
(153,367,o),
(209,248,cs),
(260,141,o),
(311,44,o),
(361,0,cs),
(375,-13,o),
(496,107,o),
(481,120,cs),
(448,149,o),
(457,149,o),
(493,598,cs),
(498,661,o),
(487,673,o),
(469,707,cs),
(459,726,o),
(335,609,o),
(345,591,cs),
(363,559,o),
(364,555,o),
(359,496,cs),
(323,39,o),
(320,37,o),
(361,0,cs),
(375,-13,o),
(496,107,o),
(481,120,cs),
(429,167,o),
(374,273,o),
(320,389,cs),
(268,502,o),
(218,623,o),
(173,703,cs)
);
},
{
closed = 1;
nodes = (
(12,-26,o),
(91,14,o),
(99,58,cs),
(110,118,o),
(150,586,o),
(150,587,cs),
(154,632,o),
(75,588,o),
(72,545,cs),
(70,529,o),
(32,84,o),
(21,22,cs)
);
}
);
width = 539;
}
);
unicode = 110;
},
{
glyphname = o;
lastChange = "2023-11-29 18:53:03 +0000";
layers = (
{
layerId = m01;
shapes = (
{
closed = 1;
nodes = (
(265,659,o),
(173,617,o),
(119,530,cs),
(5,346,o),
(-10,182,o),
(29,82,cs),
(68,-19,o),
(162,-53,o),
(260,27,cs),
(321,76,o),
(404,248,o),
(334,191,cs),
(261,133,o),
(196,154,o),
(163,219,cs),
(122,296,o),
(126,434,o),
(211,572,cs)
);
},
{
closed = 1;
nodes = (
(210,55,o),
(283,60,o),
(354,160,cs),
(491,349,o),
(494,520,o),
(445,621,cs),
(403,706,o),
(323,741,o),
(254,694,cs),
(192,651,o),
(80,485,o),
(156,538,cs),
(207,574,o),
(255,544,o),
(288,485,cs),
(336,398,o),
(348,247,o),
(282,155,cs)
);
}
);
width = 484;
}
);
unicode = 111;
},
{
glyphname = p;
lastChange = "2023-11-29 17:36:59 +0000";
layers = (
{
guides = (
{
pos = (717,374);
},
{
pos = (629,569);
}
);
layerId = m01;
shapes = (
{
closed = 1;
nodes = (
(119,272,o),
(182,244,o),
(261,311,cs),
(424,451,o),
(458,575,o),
(428,648,cs),
(404,708,o),
(339,734,o),
(267,707,cs),
(190,678,o),
(106,588,o),
(59,414,cs),
(29,303,o),
(113,302,o),
(143,414,cs),
(161,478,o),
(187,520,o),
(213,542,cs),
(246,571,o),
(280,570,o),
(297,550,cs),
(324,517,o),
(311,436,o),
(195,337,cs)
);
},
{
closed = 1;
nodes = (
(152,448,o),
(75,469,o),
(62,418,cs),
(37,318,o),
(25,26,o),
(25,19,cs),
(22,-26,o),
(101,23,o),
(103,63,cs),
(104,74,o),
(119,315,o),
(140,398,cs)
);
},
{
closed = 1;
nodes = (
(281,316,o),
(349,421,o),
(277,374,cs),
(240,350,o),
(128,373,o),
(116,423,cs),
(107,459,o),
(39,319,o),
(48,285,cs),
(62,231,o),
(110,204,o),
(217,274,cs)
);
}
);
width = 408;
}
);
unicode = 112;
},
{
glyphname = q;
lastChange = "2023-11-29 18:42:33 +0000";
layers = (
{
background = {
shapes = (
{
closed = 1;
nodes = (
);
},
{
closed = 1;
nodes = (
);
}
);
};
layerId = m01;
shapes = (
{
closed = 1;
nodes = (
(251,345,o),
(196,285,o),
(208,260,cs),
(221,234,o),
(362,-9,o),
(362,-9,cs),
(376,-33,o),
(431,27,o),
(418,51,cs),
(410,65,o),
(283,281,o),
(264,320,cs)
);
},
{
closed = 1;
nodes = (
(276,659,o),
(184,617,o),
(130,530,cs),
(-8,308,o),
(0,119,o),
(68,33,cs),
(114,-26,o),
(189,-37,o),
(264,24,cs),
(317,66,o),
(412,243,o),
(352,194,cs),
(275,132,o),
(209,153,o),
(175,217,cs),
(133,295,o),
(137,435,o),
(222,572,cs)
);
},
{
closed = 1;
nodes = (
(223,42,o),
(299,82,o),
(366,176,cs),
(486,343,o),
(499,499,o),
(462,599,cs),
(426,700,o),
(340,746,o),
(265,694,cs),
(203,651,o),
(91,485,o),
(167,538,cs),
(230,582,o),
(292,524,o),
(323,434,cs),
(354,345,o),
(353,223,o),
(292,138,cs)
);
}
);
width = 495;
}
);
unicode = 113;
},
{
glyphname = r;
lastChange = "2023-11-29 17:36:59 +0000";
layers = (
{
layerId = m01;
shapes = (
{
closed = 1;
nodes = (
(79,292,o),
(45,160,o),
(97,210,cs),
(158,269,o),
(237,283,o),
(277,235,cs),
(304,201,o),
(312,136,o),
(279,34,cs),
(264,-13,o),
(303,-7,o),
(345,22,cs),
(380,46,o),
(419,86,o),
(431,124,cs),
(467,240,o),
(457,316,o),
(421,361,cs),
(357,443,o),
(210,418,o),
(123,334,cs)
);
},
{
closed = 1;
nodes = (
(117,272,o),
(180,244,o),
(259,311,cs),
(475,495,o),
(469,647,o),
(389,696,cs),
(303,749,o),
(131,684,o),
(59,414,cs),
(29,303,o),
(113,302,o),
(143,414,cs),
(178,541,o),
(256,577,o),
(292,552,cs),
(327,529,o),
(322,447,o),
(193,337,cs)
);
},
{
closed = 1;
nodes = (
(152,448,o),
(75,469,o),
(62,418,cs),
(37,318,o),
(25,26,o),
(25,19,cs),
(22,-26,o),
(101,23,o),
(103,63,cs),
(104,74,o),
(119,315,o),
(140,398,cs)
);
}
);
width = 498;
}
);
unicode = 114;
},
{
glyphname = s;
lastChange = "2023-11-29 17:36:59 +0000";
layers = (
{
guides = (
{
pos = (271,713);
}
);
layerId = m01;
shapes = (
{
closed = 1;
nodes = (
(50,270,o),
(-16,106,o),
(-3,80,cs),
(11,53,o),
(55,5,o),
(113,-11,cs),
(169,-25,o),
(238,-10,o),
(305,86,cs),
(478,333,o),
(380,352,o),
(275,420,cs),
(116,524,o),
(147,552,o),
(152,559,cs),
(162,573,o),
(212,571,o),
(262,544,cs),
(298,526,o),
(333,494,o),
(355,447,cs),
(366,422,o),
(429,592,o),
(419,613,cs),
(407,641,o),
(349,709,o),
(276,714,cs),
(231,717,o),
(180,696,o),
(130,625,cs),
(-25,404,o),
(46,358,o),
(151,290,cs),
(311,185,o),
(298,174,o),
(283,152,cs),
(272,136,o),
(223,135,o),
(172,154,cs),
(129,170,o),
(85,200,o),
(63,246,cs)
);
}
);
width = 435;
}
);
unicode = 115;
},
{
glyphname = t;
lastChange = "2023-11-29 18:45:13 +0000";
layers = (
{
layerId = m01;
shapes = (
{
closed = 1;
nodes = (
(445,541,o),
(513,708,o),
(471,701,cs),
(420,693,o),
(339,697,o),
(263,699,cs),
(192,701,o),
(127,700,o),
(96,684,cs),
(74,672,o),
(28,500,o),
(52,512,cs),
(78,526,o),
(143,527,o),
(214,527,cs),
(284,527,o),
(360,526,o),
(411,535,cs)
);
},
{
closed = 1;
nodes = (
(300,570,o),
(166,443,o),
(175,423,cs),
(188,393,o),
(127,82,o),
(160,2,cs),
(169,-18,o),
(300,113,o),
(292,132,cs),
(261,206,o),
(324,513,o),
(309,549,cs)
);
}
);
width = 494;
}
);
unicode = 116;
},
{
glyphname = u;
lastChange = "2023-11-29 17:36:59 +0000";
layers = (
{
layerId = m01;
shapes = (
{
closed = 1;
nodes = (
(158,730,o),
(30,604,o),
(47,583,cs),
(56,572,o),
(65,548,o),
(61,501,cs),
(52,401,o),
(44,301,o),
(36,201,cs),
(25,79,o),
(115,-49,o),
(236,-7,cs),
(349,33,o),
(407,149,o),
(424,246,cs),
(444,352,o),
(450,685,o),
(451,694,cs),
(452,737,o),
(373,690,o),
(371,648,cs),
(371,636,o),
(362,350,o),
(346,260,cs),
(323,136,o),
(276,117,o),
(274,117,cs),
(195,89,o),
(171,181,o),
(180,295,cs),
(189,395,o),
(197,495,o),
(205,595,cs),
(211,662,o),
(188,692,o),
(175,709,cs)
);
}
);
width = 481;
}
);
unicode = 117;
},
{
glyphname = v;
lastChange = "2023-11-29 17:36:59 +0000";
layers = (
{
layerId = m01;
shapes = (
{
closed = 1;
nodes = (
(505,744,o),
(421,705,o),
(406,655,cs),
(348,472,o),
(235,101,o),
(222,45,cs),
(213,9,o),
(315,104,o),
(322,133,cs),
(331,171,o),
(436,526,o),
(488,691,cs)
);
},
{
closed = 1;
nodes = (
(190,-27,o),
(323,106,o),
(308,119,cs),
(290,133,o),
(271,144,o),
(257,229,cs),
(245,304,o),
(241,428,o),
(216,599,cs),
(206,666,o),
(190,707,o),
(162,714,cs),
(143,719,o),
(14,591,o),
(38,586,cs),
(50,583,o),
(71,546,o),
(80,481,cs),
(105,316,o),
(101,194,o),
(113,123,cs),
(128,28,o),
(150,5,o),
(174,-15,cs)
);
}
);
width = 475;
}
);
unicode = 118;
},
{
glyphname = w;
lastChange = "2023-11-29 17:36:59 +0000";
layers = (
{
guides = (
{
pos = (390,713);
}
);
layerId = m01;
shapes = (
{
closed = 1;
nodes = (
(365.713,-16.955,o),
(486.251,103.084,o),
(476.577,120.467,cs),
(451,167,o),
(441,266,o),
(436,370,cs),
(427,520,o),
(426,680,o),
(394.104,711.104,cs),
(380.591,724.087,o),
(259.186,605.029,o),
(273.896,590.896,cs),
(300,566,o),
(303,425,o),
(310,284,cs),
(316,169,o),
(326,54,o),
(355.423,1.533,cs)
);
},
{
closed = 1;
nodes = (
(717.929,743.518,o),
(626.967,701.974,o),
(600.75,642.75,cs),
(567,565,o),
(538,492,o),
(514,424,cs),
(436,206,o),
(407,54,o),
(406.494,49.698,cs),
(399.576,17.289,o),
(495.311,119.277,o),
(501.506,148.302,cs),
(503,155,o),
(530,270,o),
(597,452,cs),
(622,520,o),
(654,598,o),
(691.25,683.25,cs)
);
},
{
closed = 1;
nodes = (
(128.713,-16.955,o),
(249.251,103.084,o),
(239.577,120.467,cs),
(208,177,o),
(200,313,o),
(194,440,cs),
(188,567,o),
(183,685,o),
(156.104,711.104,cs),
(142.681,724.259,o),
(21.324,605.176,o),
(35.896,590.896,cs),
(60,567,o),
(64,442,o),
(71,311,cs),
(78,187,o),
(87,58,o),
(118.423,1.533,cs)
);
},
{
closed = 1;
nodes = (
(428.374,636.997,o),
(335.055,611.549,o),
(323.568,586.767,cs),
(292,518,o),
(267,448,o),
(248,383,cs),
(200,215,o),
(189,79,o),
(187.829,72.571,cs),
(182.774,44.495,o),
(233.319,84.485,o),
(238.171,111.429,cs),
(239,114,o),
(269,226,o),
(318,368,cs),
(346,445,o),
(379,530,o),
(416.432,611.233,cs)
);
}
);
width = 656;
}
);
unicode = 119;
},
{
glyphname = x;
lastChange = "2023-11-29 17:36:59 +0000";
layers = (
{
layerId = m01;
shapes = (
{
closed = 1;
nodes = (
(529,685,o),
(515,700,o),
(493,701,cs),
(474,702,o),
(451,692,o),
(436,670,cs),
(425,652,o),
(336,524,o),
(242,388,cs),
(127,222,o),
(4,45,o),
(4,45,cs),
(-14,20,o),
(-2,4,o),
(18,1,cs),
(37,-1,o),
(62,8,o),
(78,31,cs),
(87,44,o),
(188,190,o),
(291,338,cs),
(390,481,o),
(491,628,o),
(512,658,cs)
);
},
{
closed = 1;
nodes = (
(399,4,o),
(507,148,o),
(478,142,cs),
(443,137,o),
(377,296,o),
(310,445,cs),
(250,580,o),
(189,707,o),
(153,698,cs),
(127,692,o),
(17,548,o),
(49,556,cs),
(80,563,o),
(138,434,o),
(198,298,cs),
(264,149,o),
(333,-7,o),
(372,0,cs)
);
}
);
width = 515;
}
);
unicode = 120;
},
{
glyphname = y;
lastChange = "2023-11-29 17:56:49 +0000";
layers = (
{
layerId = m01;
shapes = (
{
closed = 1;
nodes = (
(553,691,o),
(543,708,o),
(523,710,cs),
(503,711,o),
(474,697,o),
(455,665,cs),
(436,632,o),
(135,48,o),
(134,47,cs),
(118,16,o),
(130,1,o),
(150,0,cs),
(171,0,o),
(201,16,o),
(218,49,cs),
(231,75,o),
(510,616,o),
(535,659,cs)
);
},
{
closed = 1;
nodes = (
(274,329,o),
(389,457,o),
(341,434,cs),
(307,419,o),
(277,488,o),
(246,562,cs),
(212,641,o),
(176,725,o),
(133,710,cs),
(99,698,o),
(-23,568,o),
(19,582,cs),
(54,594,o),
(84,507,o),
(119,427,cs),
(151,354,o),
(186,288,o),
(233,310,cs)
);
}
);
width = 454;
}
);
unicode = 121;
},
{
glyphname = z;
lastChange = "2023-11-29 18:43:49 +0000";
layers = (
{
layerId = m01;
shapes = (
{
closed = 1;
nodes = (
(34,117,o),
(-7,-49,o),
(43,-5,cs),
(86,33,o),
(146,46,o),
(206,43,cs),
(262,39,o),
(318,20,o),
(355,-8,cs),
(371,-21,o),
(433,148,o),
(417,160,cs),
(386,185,o),
(336,206,o),
(281,212,cs),
(213,221,o),
(136,207,o),
(75,153,cs)
);
},
{
closed = 1;
nodes = (
(149,736,o),
(84,569,o),
(99,550,cs),
(122,520,o),
(177,501,o),
(238,499,cs),
(300,496,o),
(369,512,o),
(414,552,cs),
(440,575,o),
(495,744,o),
(464,716,cs),
(425,682,o),
(355,667,o),
(291,671,cs),
(236,674,o),
(185,690,o),
(163,718,cs)
);
},
{
closed = 1;
nodes = (
(455,635,o),
(371,630,o),
(350,581,cs),
(324,519,o),
(269,442,o),
(214,363,cs),
(144,266,o),
(72,166,o),
(48,94,cs),
(31,44,o),
(119,57,o),
(134,104,cs),
(151,156,o),
(222,249,o),
(293,351,cs),
(348,430,o),
(404,514,o),
(434,585,cs)
);
}
);
width = 478;
}
);
unicode = 122;
},
{
export = 0;
glyphname = d.001;
lastChange = "2023-11-29 12:35:27 +0000";
layers = (
{
layerId = m01;
shapes = (
{
closed = 1;
nodes = (
(106.063,737.75,o),
(42.396,569.92,o),
(59.523,556.812,cs),
(335.474,345.615,o),
(411.724,199.98,o),
(322.84,14.805,cs),
(298.886,-35.1,o),
(424.405,73.79,o),
(447.16,121.195,cs),
(551.617,338.815,o),
(400.343,512.526,o),
(122.477,725.188,cs)
);
},
{
closed = 1;
nodes = (
(179.961,590.719,o),
(104.185,569.068,o),
(101.124,547.26,cs),
(79.791,395.26,o),
(58.457,243.26,o),
(37.124,91.26,cs),
(34.002,69.014,o),
(109.942,91.833,o),
(112.876,112.74,cs),
(134.209,264.74,o),
(155.543,416.74,o),
(176.876,568.74,cs)
);
},
{
closed = 1;
nodes = (
(73.098,222.804,o),
(9.433,54.976,o),
(26.523,41.812,cs),
(101.943,-16.282,o),
(237.779,-23.622,o),
(325.646,2.942,cs),
(346.623,9.285,o),
(404.928,180.487,o),
(380.354,173.058,cs),
(296.221,147.622,o),
(162.057,154.282,o),
(89.477,210.188,cs)
);
}
);
width = 492;
}
);
},
{
glyphname = period;
lastChange = "2023-11-29 12:35:27 +0000";
layers = (
{
layerId = m01;
shapes = (
{
closed = 1;
nodes = (
(253.585,157.09,o),
(193.614,-13.797,o),
(220.473,2.003,cs),
(233.831,9.86,o),
(291.03,-7.92,o),
(321.165,1.433,cs),
(341.844,7.85,o),
(403.345,178.174,o),
(378.835,170.567,cs),
(350.97,161.92,o),
(296.169,182.14,o),
(275.527,169.997,cs)
);
}
);
width = 600;
}
);
unicode = 46;
},
{
glyphname = comma;
lastChange = "2023-11-29 12:35:27 +0000";
layers = (
{
layerId = m01;
shapes = (
{
closed = 1;
nodes = (
(265.058,165.725,o),
(204.392,-3.725,o),
(224.998,-3.725,cs),
(276.733,-3.725,o),
(286.335,-54.266,o),
(276.449,-95.928,cs),
(262.854,-153.223,o),
(344.722,-76.137,o),
(357.551,-22.072,cs),
(375.823,54.931,o),
(347.229,165.725,o),
(285.002,165.725,cs)
);
}
);
width = 600;
}
);
unicode = 44;
},
{
glyphname = semicolon;
lastChange = "2023-11-29 12:35:27 +0000";
layers = (
{
layerId = m01;
shapes = (
{
closed = 1;
nodes = (
(253.585,469.09,o),
(193.614,298.203,o),
(220.473,314.003,cs),
(233.831,321.86,o),
(291.03,304.08,o),
(321.165,313.433,cs),
(341.844,319.85,o),
(403.345,490.174,o),
(378.835,482.567,cs),
(350.97,473.92,o),
(296.169,494.14,o),
(275.527,481.997,cs)
);
},
{
closed = 1;
nodes = (
(265.058,165.725,o),
(204.392,-3.725,o),
(224.998,-3.725,cs),
(276.733,-3.725,o),
(286.335,-54.266,o),
(276.449,-95.928,cs),
(262.854,-153.223,o),
(344.722,-76.137,o),
(357.551,-22.072,cs),
(375.823,54.931,o),
(347.229,165.725,o),
(285.002,165.725,cs)
);
}
);
width = 600;
}
);
unicode = 59;
},
{
glyphname = hyphen;
lastChange = "2023-11-29 12:35:27 +0000";
layers = (
{
layerId = m01;
shapes = (
{
closed = 1;
nodes = (
(381.226,235.155,o),
(426.428,408.629,o),
(398.23,383.636,cs),
(358.984,348.849,o),
(157.211,421.454,o),
(94.872,361.302,cs),
(71.411,338.664,o),
(26.825,165.388,o),
(55.128,192.698,cs),
(106.789,242.546,o),
(309.016,171.151,o),
(357.77,214.364,cs)
);
}
